<svg version="1.2" baseProfile="tiny" viewBox="0 0 45.500 40.000" xmlns:xlink="http://www.w3.org/1999/xlink" xmlns="http://www.w3.org/2000/svg">
<path style="fill:#ffffff;" d="M23.245,32.161c0.171,0.16,1.395,1.129,1.395,1.129c-0.645,1.04-1.596,0.092-1.949-0.098    c-0.354-0.188-1.503-0.127-1.503-0.127l-0.124-1.126c0,0,1.166-0.004,1.43,0.002C22.758,31.946,23.076,32.001,23.245,32.161z     M22.265,29.004c0.016,0.062,0.055,0.115,0.109,0.147l0.591,0.354l-0.253,0.422l0.208,0.125l0.254-0.422    c0.067-0.115,0.03-0.265-0.084-0.333l-0.591-0.354l0.396-0.66c0.009-0.016,0.042-0.031,0.06-0.028    c0.008,0.001,0.188,0.027,0.349,0.027c0.162,0,0.341-0.026,0.349-0.027c0.019-0.003,0.051,0.013,0.061,0.028l0.396,0.66    l-0.59,0.354c-0.115,0.068-0.151,0.218-0.083,0.333l0.532,0.89l0.34,0.095l-0.665-1.109l0.59-0.354    c0.057-0.032,0.096-0.086,0.111-0.147c0.017-0.063,0.007-0.129-0.026-0.185l-0.397-0.66c-0.059-0.099-0.189-0.161-0.304-0.145    c-0.002,0.001-0.17,0.026-0.313,0.026s-0.311-0.025-0.313-0.026c-0.114-0.017-0.243,0.046-0.304,0.145l-0.396,0.66    C22.258,28.875,22.248,28.941,22.265,29.004z M24.285,25.877c0-0.542-0.439-0.98-0.981-0.98s-0.98,0.438-0.98,0.98    c0,0.541,0.438,0.98,0.98,0.98S24.285,26.418,24.285,25.877z M21.716,33.542c-0.231-0.147-1.178-0.82-1.178-0.82l-0.653,0.967    c0,0,1.052,0.568,1.262,0.927c0.211,0.356,0.631,1.555,1.768,0.987c0,0-0.589-1.133-0.652-1.365    C22.199,34.004,21.946,33.689,21.716,33.542z M21.745,31.463c0,0,0.639-0.107,1.015,0.032s1.383,0.632,1.88-0.486    c0,0-1.092-0.341-1.281-0.476c-0.188-0.136-0.644-0.346-0.905-0.314c-0.264,0.03-1.054,0.231-1.054,0.231L21.745,31.463z     M44.33,37.797c0,0.57-0.464,1.032-1.034,1.032c-0.004,0-0.011,0-0.018,0H2.203c-0.37,0-0.71-0.197-0.895-0.517    c-0.184-0.32-0.184-0.714,0.001-1.034L21.94,1.685c0.184-0.319,0.524-0.515,0.893-0.515c0.001,0,0.002,0,0.003,0    c0.369,0.001,0.709,0.199,0.894,0.519l20.359,35.447C44.239,37.315,44.33,37.545,44.33,37.797z M41.494,36.766L22.829,4.27    L3.995,36.766H41.494z M19.958,17.231l-2.703,1.62c-0.055,0.033-0.094,0.086-0.11,0.148c-0.016,0.063-0.006,0.127,0.027,0.184    l2.881,4.809c0.034,0.056,0.087,0.095,0.149,0.111c0.064,0.015,0.128,0.005,0.184-0.028l0.591-0.354l0.396,0.66    c0.009,0.017,0.009,0.056-0.001,0.071l-0.238,0.399l-0.005,0.007c-0.009,0.02-0.045,0.043-0.065,0.043h-0.805v-0.6    c0-0.134-0.108-0.242-0.242-0.242h-5.607c-0.134,0-0.243,0.108-0.243,0.242v2.505l-1.904-0.93l-2.02,3.744l3.746,1.094l1.684,2.85    c0,0,0.336,0.793,0.757,0.971c0.42,0.176,2.088,0.9,2.088,0.9s0.252-1.158-0.89-1.727c-0.929-0.463-0.373-0.376-0.531-0.581    c0,0-0.524-0.208-0.205-0.696l1.978-3.345l-2.887-1.394h4.034c0.134,0,0.242-0.108,0.242-0.241v-0.689h0.771    c0.019,0,0.051,0.022,0.059,0.039l0.22,0.409l0.005,0.009c0.011,0.018,0.012,0.06,0.001,0.078l-0.414,0.688l-0.515-0.307    c-0.056-0.034-0.12-0.043-0.184-0.027c-0.063,0.016-0.116,0.056-0.149,0.11l-2.881,4.809c-0.033,0.056-0.043,0.12-0.027,0.184    c0.016,0.063,0.055,0.115,0.11,0.148l2.703,1.619c0.039,0.023,0.082,0.034,0.124,0.034c0.083,0,0.164-0.041,0.209-0.118l0.06-0.139    l-0.208-0.124l-0.061,0.139l-2.702-1.619l2.882-4.809l0.514,0.308c0.114,0.069,0.263,0.032,0.332-0.083l0.414-0.689    c0.057-0.094,0.055-0.235-0.003-0.329L21.309,26.7c-0.048-0.103-0.167-0.178-0.279-0.178h-0.771c-0.134,0-0.242,0.108-0.242,0.241    v0.689h-4.528l-1.079-0.526v-2.624h5.607v0.6c0,0.133,0.108,0.241,0.242,0.241h0.805c0.11,0,0.23-0.072,0.281-0.17l0.229-0.386    c0.063-0.093,0.065-0.234,0.009-0.33l-0.396-0.661c-0.068-0.113-0.219-0.151-0.333-0.083l-0.59,0.354l-2.882-4.809l2.702-1.618    l2.882,4.808l-0.514,0.308c-0.114,0.068-0.152,0.218-0.084,0.332l0.414,0.69c0.059,0.098,0.188,0.16,0.301,0.147    c0.001,0,0.109-0.013,0.222-0.013s0.221,0.013,0.222,0.013c0.114,0.015,0.243-0.05,0.302-0.147l0.413-0.69    c0.069-0.114,0.031-0.264-0.084-0.332l-0.514-0.308l2.882-4.808l2.702,1.618l-2.881,4.809l-0.591-0.354    c-0.115-0.068-0.265-0.03-0.333,0.083l-0.396,0.661c-0.057,0.096-0.053,0.237,0.01,0.33l0.229,0.386    c0.051,0.098,0.171,0.17,0.281,0.17h0.805c0.134,0,0.242-0.108,0.242-0.241v-0.6h5.607v3.15h-5.607v-0.689    c0-0.133-0.108-0.241-0.242-0.241h-0.771c-0.112,0-0.231,0.075-0.278,0.178l-0.213,0.394c-0.058,0.094-0.06,0.235-0.002,0.329    l0.412,0.689c0.069,0.115,0.219,0.152,0.334,0.083l0.514-0.308l2.881,4.809l-2.702,1.619l-1.739-2.903l-0.146,0.229l1.677,2.798    c0.068,0.114,0.219,0.151,0.334,0.084l2.701-1.619c0.055-0.033,0.095-0.086,0.11-0.148c0.016-0.063,0.007-0.128-0.027-0.184    l-2.882-4.809c-0.032-0.055-0.086-0.095-0.148-0.11c-0.063-0.016-0.128-0.007-0.184,0.027l-0.514,0.307l-0.414-0.688    c-0.011-0.019-0.01-0.061,0.001-0.078l0.222-0.41l0.004-0.008c0.007-0.017,0.04-0.039,0.06-0.039h0.771v0.689    c0,0.133,0.109,0.241,0.242,0.241h5.607c0.133,0,0.242-0.108,0.242-0.241v-3.15c0-0.134-0.109-0.242-0.242-0.242h-5.607    c-0.133,0-0.242,0.108-0.242,0.242v0.6h-0.805c-0.021,0-0.057-0.023-0.066-0.043l-0.236-0.397l-0.006-0.009    c-0.012-0.016-0.012-0.055-0.002-0.071l0.395-0.66l0.592,0.354c0.056,0.033,0.12,0.044,0.184,0.028    c0.063-0.017,0.116-0.056,0.148-0.111l2.882-4.809c0.034-0.057,0.043-0.121,0.027-0.184s-0.056-0.115-0.11-0.148l-2.701-1.62    c-0.115-0.068-0.266-0.031-0.334,0.083l-2.881,4.81c-0.068,0.113-0.032,0.263,0.083,0.332l0.514,0.307l-0.414,0.691    c-0.009,0.016-0.045,0.033-0.064,0.032c-0.005-0.001-0.122-0.015-0.25-0.015c-0.126,0-0.245,0.014-0.25,0.015    c-0.019,0-0.055-0.017-0.064-0.032l-0.413-0.691l0.514-0.307c0.114-0.069,0.151-0.219,0.084-0.332l-2.882-4.81    C20.223,17.201,20.074,17.163,19.958,17.231z"/>
</svg>