<svg version="1.2" baseProfile="tiny" viewBox="0 0 45.500 40.000" xmlns:xlink="http://www.w3.org/1999/xlink" xmlns="http://www.w3.org/2000/svg">
<path style="fill:#ffffff;" d="M44.089,37.135L23.729,1.688c-0.185-0.32-0.524-0.518-0.894-0.519c-0.001,0-0.002,0-0.003,0    c-0.368,0-0.709,0.196-0.893,0.515L1.309,37.279c-0.186,0.32-0.186,0.714-0.001,1.034c0.185,0.319,0.525,0.517,0.895,0.517h41.076    c0.007,0,0.014,0,0.018,0c0.57,0,1.034-0.462,1.034-1.032C44.33,37.545,44.239,37.315,44.089,37.135z M3.995,36.766L22.829,4.27    l18.665,32.497H3.995z M14.875,34.365h17.358v1.389H14.875V34.365z M17.227,26.857c-1.199-2.284-2.841-5.413,0.33-9.255    l1.815,1.497c-2.174,2.635-1.241,4.414-0.06,6.666c1.077,2.052,2.418,4.606,0.055,7.423l-1.804-1.513    C18.851,30.14,18.333,28.966,17.227,26.857z M26.596,26.857c-1.199-2.284-2.842-5.413,0.329-9.255l1.815,1.497    c-2.174,2.635-1.242,4.414-0.061,6.666c1.077,2.052,2.418,4.606,0.055,7.423l-1.803-1.513C28.22,30.14,27.702,28.966,26.596,26.857    z M23.935,19.099c-2.175,2.635-1.241,4.414-0.062,6.666c1.078,2.052,2.419,4.606,0.056,7.423l-1.804-1.513    c1.288-1.535,0.771-2.709-0.336-4.818c-1.198-2.284-2.841-5.413,0.33-9.255L23.935,19.099z"/>
</svg>