<?xml version="1.0" standalone="no"?><!DOCTYPE svg PUBLIC "-//W3C//DTD SVG 1.1//EN" "http://www.w3.org/Graphics/SVG/1.1/DTD/svg11.dtd"><svg t="1775056182180" class="icon" viewBox="0 0 1024 1024" version="1.1" xmlns="http://www.w3.org/2000/svg" p-id="6654" xmlns:xlink="http://www.w3.org/1999/xlink" width="200" height="200"><path d="M265.142857 212.553143a9.142857 9.142857 0 0 0-9.142857 9.142857v54.857143c0 5.046857 4.096 9.142857 9.142857 9.142857h438.857143a9.142857 9.142857 0 0 0 9.142857-9.142857v-54.857143a9.142857 9.142857 0 0 0-9.142857-9.142857h-438.857143zM475.428571 377.124571H265.142857a9.142857 9.142857 0 0 0-9.142857 9.142858v54.857142c0 5.046857 4.096 9.142857 9.142857 9.142858H475.428571a9.142857 9.142857 0 0 0 9.142858-9.142858v-54.857142a9.142857 9.142857 0 0 0-9.142858-9.142858z m-54.857142 523.483429h-256v-804.571429H804.571429v365.714286c0 4.973714 4.096 9.142857 9.142857 9.142857H877.714286a9.142857 9.142857 0 0 0 9.142857-9.142857V50.322286a36.571429 36.571429 0 0 0-36.571429-36.571429h-731.428571a36.571429 36.571429 0 0 0-36.571429 36.571429v896a36.571429 36.571429 0 0 0 36.571429 36.571428H420.571429a9.142857 9.142857 0 0 0 9.142857-9.216v-63.926857a9.142857 9.142857 0 0 0-9.142857-9.216z m502.857142-100.644571h-164.571428v-41.764572a128 128 0 1 0-73.142857 0v41.837714h-164.571429a18.285714 18.285714 0 0 0-18.285714 18.285715v173.641143c0 10.093714 8.192 18.285714 18.285714 18.285714h402.285714a18.285714 18.285714 0 0 0 18.285715-18.285714v-173.641143a18.285714 18.285714 0 0 0-18.285715-18.285715z m-258.267428-164.571429a57.197714 57.197714 0 1 1 114.322286 0.073143 57.197714 57.197714 0 0 1-114.322286 0z m205.677714 304.054857H573.732571v-68.608h297.106286v68.608z" fill="#ffffff" p-id="6655"></path></svg>