<?xml version="1.0" standalone="no"?><!DOCTYPE svg PUBLIC "-//W3C//DTD SVG 1.1//EN" "http://www.w3.org/Graphics/SVG/1.1/DTD/svg11.dtd"><svg t="1776862830049" class="icon" viewBox="0 0 1205 1024" version="1.1" xmlns="http://www.w3.org/2000/svg" p-id="6291" xmlns:xlink="http://www.w3.org/1999/xlink" width="56.484375" height="48"><path d="M1081.92332866 542.22481542c-26.47569175 18.49372902-458.9846863 314.61147422-490.30189701 335.19883268a35.46085268 35.46085268 0 0 1-53.64925975-34.89382788L532.08383787 182.60030353A35.8097908 35.8097908 0 0 1 586.21288863 146.4851915c21.80864259 14.13200034 457.98148885 299.69436309 495.0561807 324.12004233a44.40239598 44.40239598 0 0 1 0.65425933 71.61958159zM291.97068618 882.78857422A65.42592708 65.42592708 0 0 1 226.5447591 817.36264714l0-610.64198561a65.42592708 65.42592708 0 0 1 130.85185418 0l0 610.64198561A65.42592708 65.42592708 0 0 1 291.97068618 882.78857422z" p-id="6292"></path></svg>